<svg width="33" height="25" viewBox="0 0 33 25" fill="none" xmlns="http://www.w3.org/2000/svg">
<path d="M31.5823 24.4467V24.5104H31.6424C31.6536 24.5106 31.6648 24.5077 31.6746 24.5023C31.6785 24.4995 31.6816 24.4958 31.6838 24.4916C31.6859 24.4873 31.6869 24.4826 31.6867 24.4779C31.6869 24.4732 31.6859 24.4686 31.6837 24.4645C31.6816 24.4603 31.6785 24.4568 31.6746 24.4542C31.6649 24.4484 31.6537 24.4456 31.6424 24.446L31.5823 24.4467ZM31.643 24.4016C31.6688 24.4 31.6943 24.4073 31.7152 24.4223C31.7236 24.4291 31.7302 24.4377 31.7346 24.4475C31.739 24.4573 31.741 24.468 31.7405 24.4787C31.7408 24.4879 31.7392 24.4971 31.7357 24.5056C31.7322 24.5142 31.7269 24.5219 31.7202 24.5282C31.704 24.5421 31.6838 24.5504 31.6625 24.5519L31.743 24.6427H31.681L31.6069 24.5526H31.5829V24.6427H31.5311V24.4018L31.643 24.4016ZM31.6269 24.7259C31.6541 24.7261 31.6811 24.7207 31.706 24.7099C31.73 24.6997 31.7519 24.6851 31.7704 24.6668C31.789 24.6485 31.8038 24.6269 31.8141 24.6031C31.8352 24.5526 31.8352 24.4959 31.8141 24.4454C31.8037 24.4217 31.7889 24.4001 31.7704 24.3817C31.7519 24.3634 31.73 24.3488 31.706 24.3385C31.6809 24.3284 31.654 24.3233 31.6269 24.3236C31.5993 24.3233 31.572 24.3284 31.5464 24.3385C31.5218 24.3486 31.4994 24.3632 31.4805 24.3817C31.452 24.4106 31.4327 24.4471 31.4251 24.4868C31.4174 24.5264 31.4217 24.5674 31.4375 24.6047C31.4473 24.6286 31.4619 24.6502 31.4805 24.6684C31.4994 24.6868 31.5218 24.7015 31.5464 24.7115C31.5718 24.7223 31.5992 24.7277 31.6269 24.7275V24.7259ZM31.6269 24.2656C31.6977 24.2655 31.7657 24.293 31.8162 24.342C31.8405 24.3656 31.8599 24.3937 31.8732 24.4247C31.887 24.4565 31.8941 24.4908 31.8941 24.5254C31.8941 24.5601 31.887 24.5943 31.8732 24.6262C31.8596 24.657 31.8402 24.685 31.8162 24.7088C31.7915 24.7323 31.7627 24.7511 31.7313 24.7646C31.6983 24.7784 31.6628 24.7855 31.6269 24.7853C31.5906 24.7855 31.5547 24.7785 31.5212 24.7646C31.4894 24.7514 31.4604 24.7325 31.4357 24.7088C31.4116 24.6842 31.3925 24.6552 31.3795 24.6235C31.3657 24.5916 31.3586 24.5573 31.3586 24.5227C31.3586 24.4881 31.3657 24.4538 31.3795 24.422C31.3928 24.391 31.4121 24.3629 31.4365 24.3393C31.4609 24.3152 31.49 24.2962 31.522 24.2836C31.5555 24.2697 31.5914 24.2626 31.6277 24.2629L31.6269 24.2656ZM6.96168 23.335C6.96168 22.8755 7.26613 22.498 7.76372 22.498C8.23924 22.498 8.56012 22.8592 8.56012 23.335C8.56012 23.8107 8.23924 24.1719 7.76372 24.1719C7.26613 24.1719 6.96168 23.7945 6.96168 23.335ZM9.10217 23.335V22.0274H8.52726V22.3459C8.34491 22.1105 8.06833 21.9629 7.6922 21.9629C6.95121 21.9629 6.3697 22.5375 6.3697 23.3356C6.3697 24.1337 6.95089 24.7083 7.6922 24.7083C8.06817 24.7083 8.34491 24.5605 8.52726 24.3253V24.6427H9.10153L9.10217 23.335ZM28.5276 23.335C28.5276 22.8755 28.8321 22.498 29.3298 22.498C29.8058 22.498 30.1262 22.8592 30.1262 23.335C30.1262 23.8107 29.8058 24.1719 29.3298 24.1719C28.8322 24.1719 28.5276 23.7945 28.5276 23.335ZM30.6688 23.335V20.9778H30.0934V22.3459C29.911 22.1105 29.6344 21.9629 29.2583 21.9629C28.5173 21.9629 27.9358 22.5375 27.9358 23.3356C27.9358 24.1337 28.517 24.7083 29.2583 24.7083C29.6344 24.7083 29.911 24.5605 30.0934 24.3253V24.6427H30.6688V23.335ZM16.2376 22.4711C16.6081 22.4711 16.846 22.7008 16.9067 23.1051H15.5349C15.5963 22.7277 15.8279 22.4711 16.2376 22.4711ZM16.2492 21.9614C15.4743 21.9614 14.9323 22.5189 14.9323 23.3342C14.9323 24.1654 15.4961 24.7069 16.2877 24.7069C16.6859 24.7069 17.0505 24.6086 17.3714 24.3406L17.0897 23.9193C16.868 24.0945 16.5858 24.1928 16.3205 24.1928C15.95 24.1928 15.6127 24.0232 15.5298 23.5525H17.4929C17.4985 23.4818 17.5043 23.4105 17.5043 23.334C17.4985 22.519 16.9892 21.9614 16.2492 21.9614ZM23.19 23.334C23.19 22.8745 23.4944 22.4971 23.992 22.4971C24.4675 22.4971 24.7884 22.8583 24.7884 23.334C24.7884 23.8097 24.4675 24.171 23.992 24.171C23.4944 24.171 23.19 23.7935 23.19 23.334ZM25.3303 23.334V22.0274H24.7557V22.3459C24.5727 22.1105 24.2968 21.9629 23.9206 21.9629C23.1796 21.9629 22.5981 22.5375 22.5981 23.3356C22.5981 24.1337 23.1793 24.7083 23.9206 24.7083C24.2968 24.7083 24.5727 24.5605 24.7557 24.3253V24.6427H25.3304L25.3303 23.334ZM19.9433 23.334C19.9433 24.127 20.5016 24.7068 21.3538 24.7068C21.752 24.7068 22.0173 24.6192 22.3041 24.3951L22.028 23.9356C21.8122 24.0889 21.5856 24.171 21.3354 24.171C20.8765 24.1654 20.539 23.8373 20.539 23.334C20.539 22.8307 20.8765 22.5028 21.3354 22.4971C21.5849 22.4971 21.8116 22.5791 22.028 22.7325L22.3041 22.273C22.0168 22.0489 21.7515 21.9613 21.3538 21.9613C20.5016 21.9613 19.9433 22.5409 19.9433 23.334ZM27.3548 21.9613C27.0231 21.9613 26.8071 22.1146 26.6578 22.3443V22.0274H26.088V24.6413H26.6636V23.176C26.6636 22.7434 26.8516 22.5031 27.2274 22.5031C27.3504 22.5013 27.4726 22.5237 27.5869 22.5689L27.7641 22.0331C27.6368 21.9836 27.4712 21.9613 27.3548 21.9613ZM11.9445 22.2352C11.6679 22.0549 11.2868 21.9617 10.8664 21.9617C10.1966 21.9617 9.76535 22.2792 9.76535 22.7985C9.76535 23.2248 10.0864 23.4877 10.6776 23.5697L10.9492 23.608C11.2644 23.6518 11.4132 23.7338 11.4132 23.8814C11.4132 24.0835 11.2038 24.1988 10.8106 24.1988C10.4124 24.1988 10.1251 24.073 9.93127 23.9254L9.66113 24.3686C9.97637 24.5983 10.3746 24.7079 10.8058 24.7079C11.5693 24.7079 12.0118 24.3524 12.0118 23.8547C12.0118 23.3952 11.6636 23.1548 11.0882 23.0728L10.8172 23.0339C10.5684 23.0021 10.3689 22.9526 10.3689 22.7774C10.3689 22.5862 10.5569 22.4713 10.8723 22.4713C11.2098 22.4713 11.5365 22.5971 11.6966 22.6953L11.9455 22.2359L11.9445 22.2352ZM19.3626 21.9622C19.0309 21.9622 18.8149 22.1156 18.6662 22.3453V22.0274H18.0965V24.6413H18.6714V23.176C18.6714 22.7434 18.8594 22.5031 19.2352 22.5031C19.3582 22.5013 19.4804 22.5237 19.5947 22.5689L19.7719 22.0331C19.6446 21.9836 19.4791 21.9622 19.3626 21.9622ZM14.4566 22.0274H13.5165V21.2344H12.9353V22.0274H12.3991V22.5469H12.9353V23.7394C12.9353 24.3458 13.1734 24.7071 13.8535 24.7071C14.103 24.7071 14.3904 24.6306 14.5728 24.505L14.4067 24.0182C14.2351 24.1165 14.0471 24.166 13.8976 24.166C13.6103 24.166 13.5165 23.9908 13.5165 23.7285V22.5474H14.4566V22.0274ZM5.86132 24.6419V23.0015C5.86132 22.3837 5.46312 21.968 4.8212 21.9624C4.48373 21.9568 4.13562 22.0607 3.8919 22.4275C3.70955 22.1376 3.42218 21.9624 3.01818 21.9624C2.7358 21.9624 2.45986 22.0444 2.24385 22.3505V22.0274H1.66846V24.6413H2.24836V23.1919C2.24836 22.7382 2.50287 22.4971 2.89592 22.4971C3.27769 22.4971 3.47083 22.7431 3.47083 23.1862V24.641H4.05202V23.1916C4.05202 22.7379 4.31733 22.4967 4.69893 22.4967C5.0915 22.4967 5.27884 22.7428 5.27884 23.1859V24.6407L5.86132 24.6419Z" fill="#231F20"/>
<path d="M20.4673 17.5859H11.7549V2.10498H20.4674L20.4673 17.5859Z" fill="#FF5F00"/>
<path d="M12.3068 9.84551C12.3068 6.70521 13.794 3.90782 16.1097 2.10506C14.3568 0.738454 12.1887 -0.00325046 9.95645 1.07084e-05C4.45752 1.07084e-05 0 4.40792 0 9.84551C0 15.2831 4.45752 19.691 9.95645 19.691C12.1888 19.6943 14.3569 18.9526 16.1099 17.586C13.7943 15.7835 12.3068 12.986 12.3068 9.84551Z" fill="#EB001B"/>
<path d="M32.221 9.84575C32.221 15.2833 27.7635 19.6912 22.2646 19.6912C20.032 19.6945 17.8636 18.9528 16.1104 17.5862C18.4267 15.7834 19.9139 12.9862 19.9139 9.84575C19.9139 6.7053 18.4267 3.90806 16.1104 2.10531C17.8636 0.738739 20.0319 -0.00294916 22.2644 0.000254475C27.7634 0.000254475 32.221 4.40817 32.221 9.84575Z" fill="#F79E1B"/>
</svg>
