<svg width="25" height="30" viewBox="0 0 25 30" fill="none" xmlns="http://www.w3.org/2000/svg">
<path d="M21.0574 2.20055C19.7061 0.660331 17.2634 0 14.1384 0H5.06891C4.75973 1.14483e-05 4.46069 0.110318 4.22556 0.311087C3.99042 0.511856 3.83462 0.789919 3.78617 1.09528L0.00979974 25.0459C-0.0652621 25.5182 0.300446 25.9459 0.779135 25.9459H6.37832L7.78452 17.0266L7.74088 17.3059C7.84106 16.6755 8.38026 16.2105 9.01877 16.2105H11.6795C16.9065 16.2105 20.9993 14.0874 22.1948 7.94579C22.2303 7.76415 22.2611 7.58736 22.2877 7.41464C22.1368 7.33473 22.1368 7.33473 22.2877 7.41464C22.6437 5.14465 22.2852 3.59948 21.0574 2.20055Z" fill="#27346A"/>
<path d="M9.92698 6.59691C10.0801 6.52402 10.2475 6.48625 10.417 6.48635H17.5273C18.3693 6.48635 19.1546 6.54115 19.8723 6.65665C20.0731 6.68867 20.2729 6.7269 20.4713 6.77128C20.7526 6.83334 21.0306 6.90931 21.3044 6.99889C21.6572 7.11672 21.9858 7.25394 22.2878 7.41464C22.6437 5.14377 22.2852 3.59948 21.0574 2.20055C19.7053 0.660331 17.2634 0 14.1384 0H5.06813C4.42953 0 3.88625 0.464918 3.78617 1.09528L0.00980027 25.0451C-0.0652616 25.5181 0.300447 25.9452 0.77836 25.9452H6.37832L9.29575 7.44451C9.32443 7.26266 9.39687 7.09051 9.50683 6.94286C9.61679 6.79521 9.76098 6.67649 9.92698 6.59691Z" fill="#E0D03C"/>
<path d="M22.1947 7.94546C20.9991 14.0862 16.9064 16.2101 11.6793 16.2101H9.01785C8.37933 16.2101 7.84003 16.6751 7.74082 17.3056L5.99142 28.3957C5.92605 28.809 6.2457 29.1835 6.66387 29.1835H11.3838C11.6542 29.1834 11.9157 29.0869 12.1213 28.9113C12.3268 28.7356 12.463 28.4924 12.5052 28.2254L12.5512 27.9848L13.4408 22.3469L13.4981 22.0353C13.5403 21.7682 13.6765 21.525 13.882 21.3494C14.0875 21.1738 14.349 21.0772 14.6194 21.0771H15.3258C19.898 21.0771 23.4782 19.2196 24.5244 13.8473C24.9611 11.6023 24.7352 9.72784 23.5799 8.41125C23.2296 8.01247 22.7944 7.68313 22.2875 7.41431C22.2601 7.5879 22.2303 7.76382 22.1947 7.94546Z" fill="#2790C3"/>
<path d="M21.0365 6.91585C20.8501 6.86142 20.6619 6.81322 20.4722 6.77135C20.2737 6.7277 20.0739 6.68973 19.8732 6.6575C19.1548 6.54122 18.37 6.48633 17.5273 6.48633H10.4178C10.2482 6.48595 10.0806 6.52404 9.9278 6.59776C9.76161 6.67709 9.61726 6.79574 9.50725 6.94344C9.39724 7.09113 9.32489 7.26341 9.29647 7.44536L7.78534 17.0267L7.7417 17.306C7.8411 16.6755 8.38031 16.2105 9.01891 16.2105H11.6804C16.9074 16.2105 21.0001 14.0875 22.1957 7.94587C22.2313 7.76423 22.2611 7.58821 22.2886 7.41471C21.9858 7.25489 21.6581 7.11679 21.3052 6.99974C21.2162 6.97022 21.1266 6.94225 21.0366 6.91585" fill="#1F264F"/>
</svg>
