<svg width="17" height="16" viewBox="0 0 17 16" fill="none" xmlns="http://www.w3.org/2000/svg">
<path d="M8.30965 1.59021C8.36926 1.40539 8.63074 1.40539 8.69035 1.59021L10.1304 6.05537C10.1571 6.13814 10.2342 6.19417 10.3212 6.19398L15.0128 6.18373C15.207 6.1833 15.2878 6.43199 15.1304 6.54579L11.3288 9.29515C11.2583 9.34612 11.2289 9.43678 11.2559 9.51943L12.7155 13.9783C12.7759 14.1628 12.5643 14.3165 12.4075 14.202L8.61791 11.4361C8.54766 11.3848 8.45234 11.3848 8.38209 11.4361L4.59252 14.202C4.43567 14.3165 4.22412 14.1628 4.28453 13.9783L5.74408 9.51943C5.77113 9.43678 5.74167 9.34612 5.6712 9.29515L1.86958 6.54579C1.71223 6.43199 1.79303 6.1833 1.98722 6.18373L6.67883 6.19398C6.7658 6.19417 6.84292 6.13814 6.86962 6.05537L8.30965 1.59021Z" stroke="#FF7622" stroke-width="2"/>
</svg>
