<svg width="62" height="62" viewBox="0 0 62 62" fill="none" xmlns="http://www.w3.org/2000/svg">
<circle cx="31" cy="31" r="31" fill="#F14237"/>
<path d="M41.2017 27.3729C41.2017 35.3075 31.0001 42.1085 31.0001 42.1085C31.0001 42.1085 20.7986 35.3075 20.7986 27.3729C20.7986 24.6673 21.8734 22.0725 23.7865 20.1593C25.6997 18.2462 28.2945 17.1714 31.0001 17.1714C33.7057 17.1714 36.3005 18.2462 38.2137 20.1593C40.1269 22.0725 41.2017 24.6673 41.2017 27.3729Z" stroke="white" stroke-width="3" stroke-linecap="round" stroke-linejoin="round"/>
<path d="M31.0001 30.7734C32.8782 30.7734 34.4006 29.251 34.4006 27.3729C34.4006 25.4949 32.8782 23.9724 31.0001 23.9724C29.1221 23.9724 27.5996 25.4949 27.5996 27.3729C27.5996 29.251 29.1221 30.7734 31.0001 30.7734Z" stroke="white" stroke-width="3" stroke-linecap="round" stroke-linejoin="round"/>
</svg>
