<svg width="41" height="14" viewBox="0 0 41 14" fill="none" xmlns="http://www.w3.org/2000/svg">
<path d="M17.6578 13.6519H14.3369L16.4124 0.896379H19.7337L17.6578 13.6519ZM11.5432 0.896379L8.37716 9.6697L8.00252 7.78046L8.00286 7.78115L6.88542 2.04486C6.88542 2.04486 6.75031 0.896379 5.3101 0.896379H0.0760648L0.0146484 1.11236C0.0146484 1.11236 1.61522 1.44537 3.48842 2.57031L6.37362 13.6522H9.83374L15.1172 0.896379H11.5432ZM37.6638 13.6519H40.7132L38.0545 0.896038H35.385C34.1522 0.896038 33.8519 1.84663 33.8519 1.84663L28.8991 13.6519H32.3609L33.0532 11.7572H37.2749L37.6638 13.6519ZM34.0096 9.13981L35.7545 4.3664L36.7361 9.13981H34.0096ZM29.1587 3.96378L29.6326 1.22461C29.6326 1.22461 28.1703 0.668457 26.6458 0.668457C24.9978 0.668457 21.0842 1.38873 21.0842 4.89117C21.0842 8.18649 25.6774 8.22744 25.6774 9.95835C25.6774 11.6893 21.5574 11.3791 20.1977 10.2876L19.704 13.1517C19.704 13.1517 21.1869 13.8719 23.4525 13.8719C25.7187 13.8719 29.1376 12.6985 29.1376 9.5049C29.1376 6.18842 24.503 5.87963 24.503 4.43771C24.5034 2.99545 27.7376 3.18072 29.1587 3.96378Z" fill="#2566AF"/>
</svg>
